{
  "accessors": [
    {
      "bufferView": 2,
      "componentType": 5126,
      "count": 20419,
      "max": [
        1.7377099990844727,
        2.2399399280548096,
        -0.5730059742927551
      ],
      "min": [
        -1.6597100496292114,
        -1.412269949913025,
        -2.664979934692383
      ],
      "type": "VEC3"
    },
    {
      "bufferView": 2,
      "byteOffset": 245028,
      "componentType": 5126,
      "count": 20419,
      "max": [
        0.9999909996986389,
        0.9996230006217957,
        0.9999272227287292
      ],
      "min": [
        -0.9999961256980896,
        -0.9993903636932373,
        -0.9999688863754272
      ],
      "type": "VEC3"
    },
    {
      "bufferView": 3,
      "componentType": 5126,
      "count": 20419,
      "max": [
        1.0,
        0.9999982714653015,
        0.9999979138374329,
        1.0
      ],
      "min": [
        -1.0,
        -0.9998124837875366,
        -0.9999616146087646,
        -1.0
      ],
      "type": "VEC4"
    },
    {
      "bufferView": 1,
      "componentType": 5126,
      "count": 20419,
      "max": [
        0.9961119890213013,
        0.9975489974021912
      ],
      "min": [
        0.0,
        0.0
      ],
      "type": "VEC2"
    },
    {
      "bufferView": 0,
      "componentType": 5125,
      "count": 112188,
      "type": "SCALAR"
    },
    {
      "bufferView": 2,
      "byteOffset": 490056,
      "componentType": 5126,
      "count": 12598,
      "max": [
        1.5476100444793701,
        1.2786400318145752,
        0.8407809734344482
      ],
      "min": [
        -1.018630027770996,
        -1.4327000379562378,
        -1.384660005569458
      ],
      "type": "VEC3"
    },
    {
      "bufferView": 2,
      "byteOffset": 641232,
      "componentType": 5126,
      "count": 12598,
      "max": [
        0.9992648959159851,
        0.9985113739967346,
        0.999900758266449
      ],
      "min": [
        -0.9995882511138916,
        -1.0,
        -0.9999951124191284
      ],
      "type": "VEC3"
    },
    {
      "bufferView": 3,
      "byteOffset": 326704,
      "componentType": 5126,
      "count": 12598,
      "max": [
        0.9999303817749023,
        0.9999887347221375,
        0.9996778964996338,
        1.0
      ],
      "min": [
        -0.9998581409454346,
        -0.999626100063324,
        -1.0,
        -1.0
      ],
      "type": "VEC4"
    },
    {
      "bufferView": 1,
      "byteOffset": 163352,
      "componentType": 5126,
      "count": 12598,
      "max": [
        0.9972259998321533,
        0.9990440011024475
      ],
      "min": [
        0.0,
        0.0
      ],
      "type": "VEC2"
    },
    {
      "bufferView": 0,
      "byteOffset": 448752,
      "componentType": 5125,
      "count": 67248,
      "type": "SCALAR"
    }
  ],
  "asset": {
    "extras": {
      "author": "Mimi Fürst (https://sketchfab.com/mimifurst)",
      "license": "CC-BY-4.0 (http://creativecommons.org/licenses/by/4.0/)",
      "source": "https://sketchfab.com/3d-models/gd51-mimifurst-mod2-2132f64e055145fba7a42f7941273870",
      "title": "GD51_MimiFurst_MOD2"
    },
    "generator": "Sketchfab-12.67.0",
    "version": "2.0"
  },
  "bufferViews": [
    {
      "buffer": 0,
      "byteLength": 717744,
      "name": "floatBufferViews",
      "target": 34963
    },
    {
      "buffer": 0,
      "byteLength": 264136,
      "byteOffset": 717744,
      "byteStride": 8,
      "name": "floatBufferViews",
      "target": 34962
    },
    {
      "buffer": 0,
      "byteLength": 792408,
      "byteOffset": 981880,
      "byteStride": 12,
      "name": "floatBufferViews",
      "target": 34962
    },
    {
      "buffer": 0,
      "byteLength": 528272,
      "byteOffset": 1774288,
      "byteStride": 16,
      "name": "floatBufferViews",
      "target": 34962
    }
  ],
  "buffers": [
    {
      "byteLength": 2302560,
      "uri": "scene.bin"
    }
  ],
  "images": [
    {
      "uri": "textures/body_baseColor.png"
    },
    {
      "uri": "textures/body_metallicRoughness.png"
    },
    {
      "uri": "textures/body_normal.png"
    },
    {
      "uri": "textures/head_baseColor.png"
    },
    {
      "uri": "textures/head_metallicRoughness.png"
    },
    {
      "uri": "textures/head_normal.png"
    }
  ],
  "materials": [
    {
      "doubleSided": true,
      "name": "body",
      "normalTexture": {
        "index": 2
      },
      "occlusionTexture": {
        "index": 1
      },
      "pbrMetallicRoughness": {
        "baseColorTexture": {
          "index": 0
        },
        "metallicRoughnessTexture": {
          "index": 1
        }
      }
    },
    {
      "doubleSided": true,
      "name": "head",
      "normalTexture": {
        "index": 5
      },
      "occlusionTexture": {
        "index": 4
      },
      "pbrMetallicRoughness": {
        "baseColorTexture": {
          "index": 3
        },
        "metallicRoughnessTexture": {
          "index": 4
        }
      }
    }
  ],
  "meshes": [
    {
      "name": "Object_0",
      "primitives": [
        {
          "attributes": {
            "NORMAL": 1,
            "POSITION": 0,
            "TANGENT": 2,
            "TEXCOORD_0": 3
          },
          "indices": 4,
          "material": 0,
          "mode": 4
        }
      ]
    },
    {
      "name": "Object_1",
      "primitives": [
        {
          "attributes": {
            "NORMAL": 6,
            "POSITION": 5,
            "TANGENT": 7,
            "TEXCOORD_0": 8
          },
          "indices": 9,
          "material": 1,
          "mode": 4
        }
      ]
    }
  ],
  "nodes": [
    {
      "children": [
        1
      ],
      "matrix": [
        1.0,
        0.0,
        0.0,
        0.0,
        0.0,
        2.220446049250313e-16,
        -1.0,
        0.0,
        0.0,
        1.0,
        2.220446049250313e-16,
        0.0,
        0.0,
        0.0,
        0.0,
        1.0
      ],
      "name": "Sketchfab_model"
    },
    {
      "children": [
        2,
        3
      ],
      "name": "Yubaba_03.obj.cleaner.materialmerger.gles"
    },
    {
      "mesh": 0,
      "name": "Object_2"
    },
    {
      "mesh": 1,
      "name": "Object_3"
    }
  ],
  "samplers": [
    {
      "magFilter": 9729,
      "minFilter": 9987,
      "wrapS": 10497,
      "wrapT": 10497
    }
  ],
  "scene": 0,
  "scenes": [
    {
      "name": "Sketchfab_Scene",
      "nodes": [
        0
      ]
    }
  ],
  "textures": [
    {
      "sampler": 0,
      "source": 0
    },
    {
      "sampler": 0,
      "source": 1
    },
    {
      "sampler": 0,
      "source": 2
    },
    {
      "sampler": 0,
      "source": 3
    },
    {
      "sampler": 0,
      "source": 4
    },
    {
      "sampler": 0,
      "source": 5
    }
  ]
}
